<mxfile host="app.diagrams.net" modified="2024-02-17T12:20:17.063Z" agent="Mozilla/5.0 (Windows NT 10.0; Win64; x64) AppleWebKit/537.36 (KHTML, like Gecko) Chrome/121.0.0.0 Safari/537.36" etag="Gf90qc6FNw_rsmzPQQN5" version="23.1.5" type="device">
  <diagram name="Page-1" id="tl03flybyZiHvVm3pond">
    <mxGraphModel dx="880" dy="500" grid="1" gridSize="10" guides="1" tooltips="1" connect="1" arrows="1" fold="1" page="1" pageScale="1" pageWidth="850" pageHeight="1100" math="0" shadow="0">
      <root>
        <mxCell id="0" />
        <mxCell id="1" parent="0" />
        <mxCell id="ETi17i0VDFICA4N1FO-j-1" value="&lt;font style=&quot;font-size: 18px;&quot;&gt;&lt;b&gt;PDF&lt;/b&gt;&lt;/font&gt;" style="rounded=1;whiteSpace=wrap;html=1;fillColor=#ee2020;" vertex="1" parent="1">
          <mxGeometry x="200" y="200" width="70" height="60" as="geometry" />
        </mxCell>
        <mxCell id="ETi17i0VDFICA4N1FO-j-4" value="" style="shape=flexArrow;endArrow=classic;html=1;rounded=0;fillColor=#f8cecc;strokeColor=#b85450;" edge="1" parent="1">
          <mxGeometry width="50" height="50" relative="1" as="geometry">
            <mxPoint x="290" y="230" as="sourcePoint" />
            <mxPoint x="330" y="230" as="targetPoint" />
          </mxGeometry>
        </mxCell>
        <mxCell id="ETi17i0VDFICA4N1FO-j-5" value="&lt;font style=&quot;font-size: 14px;&quot;&gt;&lt;b&gt;Summary Text&lt;/b&gt;&lt;/font&gt;" style="rounded=1;whiteSpace=wrap;html=1;fillColor=#d5e8d4;strokeColor=#82b366;" vertex="1" parent="1">
          <mxGeometry x="350" y="200" width="70" height="65" as="geometry" />
        </mxCell>
      </root>
    </mxGraphModel>
  </diagram>
</mxfile>
